HIERARCHY
ROOT Hips
{
  OFFSET 5.84602e-005 68.8428 3.50346
  CHANNELS 6 Xposition Yposition Zposition Zrotation Xrotation Yrotation
  JOINT Spine
  {
    OFFSET 0 8.597 -4.6522
    CHANNELS 3 Zrotation Xrotation Yrotation
    JOINT Spine1
    {
      OFFSET 0 7.8454 0.4098
      CHANNELS 3 Zrotation Xrotation Yrotation
      JOINT Spine2
      {
        OFFSET 0 9.7078 -2.1609
        CHANNELS 3 Zrotation Xrotation Yrotation
        JOINT Neck
        {
          OFFSET 0 21.8761 -0.4549
          CHANNELS 3 Zrotation Xrotation Yrotation
          JOINT Head
          {
            OFFSET 0 12.3537 3.3602
            CHANNELS 3 Zrotation Xrotation Yrotation
            End Site
            {
              OFFSET 0.0001 18.9506 0.5657
            }
          }
        }
        JOINT LeftShoulder
        {
          OFFSET 2.2086 21.1115 7.2329
          CHANNELS 3 Zrotation Xrotation Yrotation
          JOINT LeftArm
          {
            OFFSET 13.1193 3.0282 -4.8998
            CHANNELS 3 Zrotation Xrotation Yrotation
            JOINT LeftForeArm
            {
              OFFSET 27.4081 -0.0973053 -0.2375
              CHANNELS 3 Zrotation Xrotation Yrotation
              JOINT LeftHand
              {
                OFFSET 22.8641 0.0662994 -0.1369
                CHANNELS 3 Zrotation Xrotation Yrotation
                JOINT LeftHandIndex1
                {
                  OFFSET 8.8614 0.775009 2.4612
                  CHANNELS 3 Zrotation Xrotation Yrotation
                  JOINT LeftHandIndex2
                  {
                    OFFSET 3.3146 -0.808304 0.5841
                    CHANNELS 3 Zrotation Xrotation Yrotation
                    JOINT LeftHandIndex3
                    {
                      OFFSET 2.2628 -0.552002 0.3989
                      CHANNELS 3 Zrotation Xrotation Yrotation
                      End Site
                      {
                        OFFSET 1.6102 -0.4807 0.2612
                      }
                    }
                  }
                }
                JOINT LeftHandMiddle1
                {
                  OFFSET 8.9937 0.895004 0.2143
                  CHANNELS 3 Zrotation Xrotation Yrotation
                  JOINT LeftHandMiddle2
                  {
                    OFFSET 4.0984 0.0113983 -0.0242
                    CHANNELS 3 Zrotation Xrotation Yrotation
                    JOINT LeftHandMiddle3
                    {
                      OFFSET 2.2716 0.00689697 -0.0138001
                      CHANNELS 3 Zrotation Xrotation Yrotation
                      End Site
                      {
                        OFFSET 2.0404 -0.1441 0.0027
                      }
                    }
                  }
                }
                JOINT LeftHandRing1
                {
                  OFFSET 8.5234 0.597198 -2.0164
                  CHANNELS 3 Zrotation Xrotation Yrotation
                  JOINT LeftHandRing2
                  {
                    OFFSET 3.7188 -0.188293 -0.2328
                    CHANNELS 3 Zrotation Xrotation Yrotation
                    JOINT LeftHandRing3
                    {
                      OFFSET 2.1191 -0.106598 -0.1332
                      CHANNELS 3 Zrotation Xrotation Yrotation
                      End Site
                      {
                        OFFSET 1.8737 -0.2304 -0.0886
                      }
                    }
                  }
                }
                JOINT LeftHandPinky1
                {
                  OFFSET 7.9094 -0.601089 -3.4825
                  CHANNELS 3 Zrotation Xrotation Yrotation
                  JOINT LeftHandPinky2
                  {
                    OFFSET 2.2874 -0.477005 -0.6314
                    CHANNELS 3 Zrotation Xrotation Yrotation
                    JOINT LeftHandPinky3
                    {
                      OFFSET 1.6774 -0.349396 -0.4633
                      CHANNELS 3 Zrotation Xrotation Yrotation
                      End Site
                      {
                        OFFSET 1.4888 -0.4091 -0.3416
                      }
                    }
                  }
                }
                JOINT LeftHandThumb1
                {
                  OFFSET 1.833 -1.3875 1.3896
                  CHANNELS 3 Zrotation Xrotation Yrotation
                  JOINT LeftHandThumb2
                  {
                    OFFSET 3.4129 -1.121 2.5732
                    CHANNELS 3 Zrotation Xrotation Yrotation
                    JOINT LeftHandThumb3
                    {
                      OFFSET 2.2474 -0.804199 1.6192
                      CHANNELS 3 Zrotation Xrotation Yrotation
                      End Site
                      {
                        OFFSET 1.6527 -0.5689 1.1317
                      }
                    }
                  }
                }
              }
            }
          }
        }
        JOINT RightShoulder
        {
          OFFSET -2.2086 21.1115 7.2329
          CHANNELS 3 Zrotation Xrotation Yrotation
          JOINT RightArm
          {
            OFFSET -13.1216 3.0287 -4.9007
            CHANNELS 3 Zrotation Xrotation Yrotation
            JOINT RightForeArm
            {
              OFFSET -27.4081 -0.0973053 -0.2375
              CHANNELS 3 Zrotation Xrotation Yrotation
              JOINT RightHand
              {
                OFFSET -22.8641 0.0664063 -0.1369
                CHANNELS 3 Zrotation Xrotation Yrotation
                JOINT RightHandIndex1
                {
                  OFFSET -8.8614 0.774994 2.4612
                  CHANNELS 3 Zrotation Xrotation Yrotation
                  JOINT RightHandIndex2
                  {
                    OFFSET -3.3146 -0.808304 0.5841
                    CHANNELS 3 Zrotation Xrotation Yrotation
                    JOINT RightHandIndex3
                    {
                      OFFSET -2.2628 -0.552002 0.3989
                      CHANNELS 3 Zrotation Xrotation Yrotation
                      End Site
                      {
                        OFFSET -1.6102 -0.4807 0.2612
                      }
                    }
                  }
                }
                JOINT RightHandMiddle1
                {
                  OFFSET -8.9937 0.894989 0.2143
                  CHANNELS 3 Zrotation Xrotation Yrotation
                  JOINT RightHandMiddle2
                  {
                    OFFSET -4.0984 0.0113983 -0.0242
                    CHANNELS 3 Zrotation Xrotation Yrotation
                    JOINT RightHandMiddle3
                    {
                      OFFSET -2.2716 0.00691223 -0.0138001
                      CHANNELS 3 Zrotation Xrotation Yrotation
                      End Site
                      {
                        OFFSET -2.0404 -0.1441 0.0027
                      }
                    }
                  }
                }
                JOINT RightHandRing1
                {
                  OFFSET -8.5234 0.597198 -2.0164
                  CHANNELS 3 Zrotation Xrotation Yrotation
                  JOINT RightHandRing2
                  {
                    OFFSET -3.7188 -0.188309 -0.2328
                    CHANNELS 3 Zrotation Xrotation Yrotation
                    JOINT RightHandRing3
                    {
                      OFFSET -2.1191 -0.106598 -0.1332
                      CHANNELS 3 Zrotation Xrotation Yrotation
                      End Site
                      {
                        OFFSET -1.8737 -0.2304 -0.0886
                      }
                    }
                  }
                }
                JOINT RightHandPinky1
                {
                  OFFSET -7.9094 -0.601105 -3.4825
                  CHANNELS 3 Zrotation Xrotation Yrotation
                  JOINT RightHandPinky2
                  {
                    OFFSET -2.2874 -0.477005 -0.6314
                    CHANNELS 3 Zrotation Xrotation Yrotation
                    JOINT RightHandPinky3
                    {
                      OFFSET -1.6774 -0.349396 -0.4633
                      CHANNELS 3 Zrotation Xrotation Yrotation
                      End Site
                      {
                        OFFSET -1.4888 -0.4091 -0.3416
                      }
                    }
                  }
                }
                JOINT RightHandThumb1
                {
                  OFFSET -1.833 -1.38751 1.3896
                  CHANNELS 3 Zrotation Xrotation Yrotation
                  JOINT RightHandThumb2
                  {
                    OFFSET -3.41299 -1.12099 2.5732
                    CHANNELS 3 Zrotation Xrotation Yrotation
                    JOINT RightHandThumb3
                    {
                      OFFSET -2.24741 -0.804108 1.6192
                      CHANNELS 3 Zrotation Xrotation Yrotation
                      End Site
                      {
                        OFFSET -1.6527 -0.5689 1.1317
                      }
                    }
                  }
                }
              }
            }
          }
        }
      }
    }
  }
  JOINT RightUpLeg
  {
    OFFSET -9.1966 3.8861 -0.7581
    CHANNELS 3 Zrotation Xrotation Yrotation
    JOINT RightLeg
    {
      OFFSET -0.7359 -41.0265 0
      CHANNELS 3 Zrotation Xrotation Yrotation
      JOINT RightFoot
      {
        OFFSET 0 -40.2855 0
        CHANNELS 3 Zrotation Xrotation Yrotation
        JOINT RightToeBase
        {
          OFFSET 0 -5.6122 11.7359
          CHANNELS 3 Zrotation Xrotation Yrotation
          End Site
          {
            OFFSET 0 0 7.8731
          }
        }
      }
    }
  }
  JOINT LeftUpLeg
  {
    OFFSET 9.1965 3.8864 -0.7581
    CHANNELS 3 Zrotation Xrotation Yrotation
    JOINT LeftLeg
    {
      OFFSET 0.7359 -41.0268 0
      CHANNELS 3 Zrotation Xrotation Yrotation
      JOINT LeftFoot
      {
        OFFSET 0 -40.2855 0
        CHANNELS 3 Zrotation Xrotation Yrotation
        JOINT LeftToeBase
        {
          OFFSET 0 -5.6122 11.7359
          CHANNELS 3 Zrotation Xrotation Yrotation
          End Site
          {
            OFFSET 0 0 7.8731
          }
        }
      }
    }
  }
}
MOTION
Frames:	4
Frame Time:	0.0333333
39.7116 -5.82937 51.0608 0 76.2989 -0 -0.456112 2.861 -0.194664 -0.904169 5.72343 -0.367173 -0.90417 5.72348 -0.367172 -0.00228878 -2.95569 -44.0018 -2.3404 -16.7863 -31.2042 -3.94438 8.42782 -6.61883 -33.8419 -45.9124 -9.46091 34.2442 -16.7963 -42.1368 22.1411 -32.8463 -20.996 -1.98785e-016 -7.95139e-016 3.18055e-015 1.98785e-016 -6.95746e-016 3.18055e-015 3.97569e-016 -5.96354e-016 3.18055e-015 -1.98785e-016 -7.95139e-016 3.18055e-015 -0.0146185 -8.83498e-005 -6.88345e-007 3.97569e-016 -2.98177e-016 3.18055e-015 -1.98785e-016 -7.95139e-016 3.18055e-015 -0.0187627 -0.00117632 5.83941e-005 -1.98785e-016 -5.96354e-016 -6.36111e-015 -1.98785e-016 -7.95139e-016 3.18055e-015 -0.0122795 -0.00325056 0.000683734 -1.98785e-016 -4.96962e-016 -0 -1.98785e-016 -7.95139e-016 3.18055e-015 1.98785e-016 -6.95746e-016 3.18055e-015 3.97569e-016 -5.96354e-016 3.18055e-015 51.0719 -13.8088 3.46439 37.592 -38.4314 11.0736 -31.1912 -17.0445 35.3231 -6.59732 -13.9298 30.3619 -6.48742e-008 9.76826e-008 -1.8688e-007 -5.02153e-008 -4.99987e-008 -3.37373e-007 1.98785e-016 -7.95139e-016 -3.18055e-015 -6.48742e-008 9.76826e-008 -1.8688e-007 0.0149957 -9.07252e-005 5.21213e-007 -1.78906e-015 -1.59028e-015 4.77083e-015 -6.48742e-008 9.76826e-008 -1.8688e-007 0.0190022 -0.00119249 -6.05571e-005 5.96354e-016 -7.95139e-016 -1.59028e-015 -6.48742e-008 9.76826e-008 -1.8688e-007 0.0122659 -0.00324701 -0.000676323 7.95139e-016 1.59028e-015 1.59028e-015 -6.48742e-008 9.76826e-008 -1.8688e-007 -5.02153e-008 -4.99987e-008 -3.37373e-007 1.98785e-016 -7.95139e-016 -3.18055e-015 -5.39482 10.2847 -52.3531 7.03609 17.1743 -22.4038 -15.4887 42.322 10.4943 7.68386e-007 1.72874e-006 2.76907e-006 2.98316 14.0751 47.5493 -4.79914 3.11242 20.7785 6.95178 41.0075 -5.60759 -9.69091e-007 9.66688e-007 1.41178e-006 
39.7122 -5.80481 51.0409 0 76.5239 -0 -0.443563 2.67489 -0.195548 -0.879412 5.3512 -0.370941 -0.879412 5.35121 -0.37094 -0.00229547 -2.54255 -44.0018 -2.14428 -16.6735 -30.7678 -4.27868 7.76808 -6.51157 -33.8419 -45.9124 -9.46091 34.2349 -16.789 -42.1167 20.8828 -32.1819 -21.9521 -1.98785e-016 5.96354e-016 9.54166e-015 1.98785e-016 1.98785e-016 3.18055e-015 1.98785e-016 6.95746e-016 6.36111e-015 -1.98785e-016 5.96354e-016 9.54166e-015 -0.0146077 -8.89334e-005 4.70962e-006 3.97569e-016 9.93923e-016 -3.18055e-015 -1.98785e-016 5.96354e-016 9.54166e-015 -0.0187605 -0.00117601 5.4337e-005 -4.96962e-016 2.98177e-016 6.36111e-015 -1.98785e-016 5.96354e-016 9.54166e-015 -0.0122559 -0.00324431 0.000666001 -2.98177e-016 -9.93923e-017 -6.36111e-015 -1.98785e-016 5.96354e-016 9.54166e-015 1.98785e-016 1.98785e-016 3.18055e-015 1.98785e-016 6.95746e-016 6.36111e-015 50.9453 -13.5592 2.34195 38.2843 -38.587 11.9191 -31.3926 -17.2475 35.4636 -6.00232 -13.2601 30.5811 5.96354e-016 1.59028e-015 1.59028e-015 -1.14598e-007 4.79581e-008 -5.24157e-007 0 0 -3.18055e-015 5.96354e-016 1.59028e-015 1.59028e-015 0.0149974 -9.19032e-005 -3.95995e-007 7.95139e-016 -1.59028e-015 -1.59028e-015 5.96354e-016 1.59028e-015 1.59028e-015 0.0189899 -0.00119072 -5.87736e-005 -1.98785e-016 0 -1.59028e-015 5.96354e-016 1.59028e-015 1.59028e-015 0.0122796 -0.00325073 -0.000676335 -5.96354e-016 -7.95139e-016 -0 5.96354e-016 1.59028e-015 1.59028e-015 -1.14598e-007 4.79581e-008 -5.24157e-007 0 0 -3.18055e-015 -5.34431 9.88548 -51.5962 7.03645 17.184 -22.3692 -14.5676 42.5049 9.38868 2.53871e-006 -1.7759e-006 3.11796e-006 2.89612 13.8323 47.451 -4.79923 3.13076 20.7779 6.94623 40.9972 -5.60477 -1.12786e-006 1.66149e-006 -2.65963e-006 
39.7128 -5.78017 51.0211 0 76.749 -0 -0.430966 2.48897 -0.196578 -0.854586 4.97951 -0.374922 -0.854585 4.9795 -0.374922 -0.00243059 -2.13008 -44.0018 -1.9492 -16.5593 -30.332 -4.61117 7.10797 -6.40837 -33.8419 -45.9124 -9.46091 34.2257 -16.7817 -42.0966 19.6475 -31.5004 -22.8835 -1.86242e-007 -1.20622e-007 2.51175e-006 9.2483e-008 5.32003e-008 1.86825e-009 -9.2483e-008 -5.32003e-008 -1.86824e-009 -1.86242e-007 -1.20622e-007 2.51175e-006 -0.0145934 -8.86279e-005 -8.08038e-007 -9.24832e-008 -5.32e-008 -1.87498e-009 -1.86242e-007 -1.20622e-007 2.51175e-006 -0.0187466 -0.00117545 5.84849e-005 -9.24833e-008 -5.31999e-008 -1.87601e-009 -1.86242e-007 -1.20622e-007 2.51175e-006 -0.0122729 -0.00324932 0.000675502 -9.24835e-008 -5.31996e-008 -1.87132e-009 -1.86242e-007 -1.20622e-007 2.51175e-006 9.2483e-008 5.32003e-008 1.86825e-009 -9.2483e-008 -5.32003e-008 -1.86824e-009 50.8239 -13.3072 1.2217 38.9809 -38.7346 12.7686 -31.5937 -17.451 35.6036 -5.41171 -12.5884 30.7926 -1.98785e-016 0 1.59028e-015 -7.95139e-016 -7.95139e-016 1.59028e-015 -3.97569e-016 0 1.59028e-015 -1.98785e-016 0 1.59028e-015 0.0149918 -9.18912e-005 -5.08696e-007 -3.97569e-016 -7.95139e-016 1.59028e-015 -1.98785e-016 0 1.59028e-015 0.0190036 -0.00119165 -5.95883e-005 3.97569e-016 0 1.59028e-015 -1.98785e-016 0 1.59028e-015 0.0122748 -0.00324914 -0.000677116 1.98785e-016 -2.38542e-015 1.59028e-015 -1.98785e-016 0 1.59028e-015 -7.95139e-016 -7.95139e-016 1.59028e-015 -3.97569e-016 0 1.59028e-015 -5.28884 9.48671 -50.8401 7.03686 17.1945 -22.3343 -13.6389 42.6741 8.2757 -2.97151e-006 3.5688e-006 -1.81719e-006 2.79827 13.599 47.3544 -4.79919 3.1212 20.7778 6.94802 40.9998 -5.60563 -8.94531e-016 3.18055e-015 2.78299e-015 
39.7134 -5.75545 51.0014 0 76.9741 -0 -0.418335 2.30359 -0.197722 -0.829718 4.60858 -0.379051 -0.829718 4.60859 -0.379051 -0.00241698 -1.71655 -44.0016 -1.75516 -16.4437 -29.8971 -4.94193 6.44747 -6.3092 -33.8419 -45.9124 -9.46091 34.2164 -16.7745 -42.0765 18.4353 -30.8029 -23.79 -9.25274e-008 -5.31338e-008 -1.64501e-009 -9.25274e-008 -5.31338e-008 -1.64499e-009 -9.25274e-008 -5.31338e-008 -1.645e-009 -9.25274e-008 -5.31338e-008 -1.64501e-009 -0.0146118 -8.88989e-005 -6.66744e-006 -9.25276e-008 -5.31336e-008 -1.65171e-009 -9.25274e-008 -5.31338e-008 -1.64501e-009 -0.0187625 -0.00117663 5.96075e-005 -9.25277e-008 -5.31335e-008 -1.65275e-009 -9.25274e-008 -5.31338e-008 -1.64501e-009 -0.0122766 -0.00324971 0.000673671 -9.25279e-008 -5.31332e-008 -1.64804e-009 -9.25274e-008 -5.31338e-008 -1.64501e-009 -9.25274e-008 -5.31338e-008 -1.64499e-009 -9.25274e-008 -5.31338e-008 -1.645e-009 50.7077 -13.0532 0.103855 39.6815 -38.874 13.6219 -31.7946 -17.6549 35.743 -4.82538 -11.9149 30.9963 -1.65287e-007 -2.08758e-009 -8.61639e-007 1.98785e-016 -3.18055e-015 -3.18055e-015 -1.65287e-007 -2.08758e-009 -8.61639e-007 -1.65287e-007 -2.08758e-009 -8.61639e-007 0.0149922 -9.08121e-005 -1.24595e-006 -1.65279e-007 -2.20036e-009 -8.61638e-007 -1.65287e-007 -2.08758e-009 -8.61639e-007 0.0189925 -0.00119125 -6.02631e-005 -1.65285e-007 -2.23119e-009 -8.61637e-007 -1.65287e-007 -2.08758e-009 -8.61639e-007 0.012283 -0.00325124 -0.000677033 -1.65304e-007 -2.18287e-009 -8.61634e-007 -1.65287e-007 -2.08758e-009 -8.61639e-007 1.98785e-016 -3.18055e-015 -3.18055e-015 -1.65287e-007 -2.08758e-009 -8.61639e-007 -5.22829 9.08868 -50.0847 7.03728 17.2055 -22.299 -12.7033 42.8299 7.15606 -1.0956e-006 -3.48649e-007 -3.63213e-006 2.70093 13.3651 47.2573 -4.79915 3.11374 20.7776 6.94928 41.0016 -5.60624 -5.76629e-006 -9.33021e-006 3.28776e-006 
